<?xml version="1.0" encoding="utf-8"?>
<!-- Generator: Adobe Illustrator 26.3.1, SVG Export Plug-In . SVG Version: 6.00 Build 0)  -->
<svg version="1.1" id="Artwork" xmlns="http://www.w3.org/2000/svg" xmlns:xlink="http://www.w3.org/1999/xlink" x="0px" y="0px"
	 viewBox="0 0 654.8 288.6" style="enable-background:new 0 0 654.8 288.6;" xml:space="preserve">
<style type="text/css">
	.st0{fill:#FFFFFF;}
</style>
<g>
	<path class="st0" d="M158.4,167.7c-1.3-0.4-1.4-2.2,0.1-2.8c25.8-12.2,24.1-39.9,24.1-39.9c-0.1-28.1-20.7-54.1-53.9-53.9
		c-37,0.2-59.2,29.3-59,63.7c0.3,60.2,46.3,83.2,60.6,83.1l-0.1-23.9c0-3.8,0-6.8,2.3-6.8c0,0,14.8,14.8,31.2,14.8
		c25.6-0.1,34.3-21.6,34.3-21.6L158.4,167.7z M128.8,149.3c-13.1,0.1-23.7-10.5-23.8-23.6c-0.1-13.1,10.5-23.7,23.6-23.8
		c13.1-0.1,23.7,10.5,23.8,23.6C152.4,138.6,141.8,149.2,128.8,149.3"/>
	<path class="st0" d="M375,124.3c-2.9-5.4-10.4-11.9-22.7-11.9c-18.9,0-34.2,14.4-34.2,35.6c0,19,12.6,35.8,34.2,35.8
		c9.4,0,18.4-3.9,22.7-11.8v9.7h16v-67.2h-16V124.3z M375.1,148.6c-0.2,3.3-1,6.5-2.6,9.4c-3.1,6.1-8.9,10.8-17.9,10.8
		c-14.4,0-20.4-12.1-20.4-20.4v-0.1c0-10.4,7.3-20.9,20.3-20.9c9.7,0,15.9,5.5,18.7,11.9C374.6,142.1,375.2,145.4,375.1,148.6"/>
	<path class="st0" d="M443.8,112.4c-11.1,0-19,5.1-23.8,11.9v-9.8H405v90.7h16v-23.5v-8.9c2.7,4.3,9.8,11,22.9,11
		c19.7,0,33.3-16,33.3-35.1C477.3,132.3,467.3,112.4,443.8,112.4 M461.2,148.1c0,11-8.2,20.7-20.4,20.7c-5.8,0-10.9-2.3-14.6-6
		s-5.9-8.8-5.9-14.6c0-5.9,2.2-11.1,5.8-14.8c3.7-3.8,8.7-6.1,14.6-6.1c13.6,0,20.6,11,20.6,20.7V148.1z"/>
	<rect x="487.8" y="114.5" class="st0" width="16" height="67.2"/>
	<path class="st0" d="M570.5,91.1v22.3v9.8c-2.4-3.9-9.7-10.8-22.5-10.8c-18.2,0-33.8,13.8-33.8,35.6c0,19.6,13.3,35.8,34,35.8
		c13.7,0,20.1-6.7,23-11.8v9.7h15.3V91.1H570.5z M565.7,162.6c-3.8,3.8-9.1,6.1-14.9,6.1c-12.4,0-20.6-9.3-20.6-20.7v-0.1
		c0-10.5,7.6-20.6,20.7-20.6c5.8,0,10.9,2.2,14.6,5.9c3.7,3.6,6,8.6,6,14.4C571.7,153.5,569.5,158.8,565.7,162.6"/>
	<path class="st0" d="M495.8,85.4c-5.5,0-9.9,4.4-9.9,9.9c0,5.5,4.4,9.9,9.9,9.9c5.5,0,9.9-4.4,9.9-9.9
		C505.7,89.9,501.3,85.4,495.8,85.4"/>
	<path class="st0" d="M311,120.9c0-19.6-14.1-29.9-35-29.9h-31.5v90.6h18.2v-31.8h0.7c2.1,0,3.4,1.9,3.4,1.9s12.2,14.1,16.7,19.2
		c7.2,8.3,12.6,11.6,21.2,11.6c4.2,0,8.4-1.4,11.3-5L285,149.1C300.3,146.6,311,136.2,311,120.9 M262.9,104.6h9.8
		c12.5,0,20.9,5.3,20.9,16.4c0,11.9-10.8,16.2-20.9,16.2l-9.8,0V104.6z"/>
</g>
</svg>
